<?xml version="1.0" standalone="no"?>
<!DOCTYPE svg PUBLIC "-//W3C//DTD SVG 20010904//EN"
 "http://www.w3.org/TR/2001/REC-SVG-20010904/DTD/svg10.dtd">
<svg version="1.0" xmlns="http://www.w3.org/2000/svg"
 width="900.000000pt" height="441.000000pt" viewBox="0 0 900.000000 441.000000"
 preserveAspectRatio="xMidYMid meet">

<g transform="translate(0.000000,441.000000) scale(0.100000,-0.100000)"
fill="#30D5C8" stroke="none">
<path d="M3566 3584 c-70 -22 -149 -103 -170 -174 -9 -30 -16 -62 -16 -71 0
-17 -3 -17 -35 -3 -19 7 -49 14 -67 14 -67 -1 -152 -58 -177 -118 -10 -23 -21
-30 -68 -40 -101 -21 -171 -91 -195 -192 -14 -62 2 -142 38 -191 30 -41 94
-85 143 -99 20 -6 167 -10 339 -10 166 0 302 -2 302 -4 0 -3 -16 -31 -34 -63
-46 -77 -91 -192 -118 -300 -17 -68 -22 -120 -22 -228 -1 -155 11 -235 56
-365 61 -175 153 -315 298 -454 l90 -85 0 -211 c0 -115 2 -210 4 -210 3 0 91
50 195 110 l191 110 78 -19 c343 -86 724 -33 1004 139 36 23 60 30 97 30 53 0
79 18 59 38 -8 8 -50 12 -117 12 -81 0 -114 4 -141 18 -96 48 -109 189 -23
250 67 47 145 32 161 -31 9 -34 29 -36 24 -2 -4 32 -32 67 -63 78 -25 10 -29
17 -29 48 0 72 73 139 151 139 23 0 51 -10 80 -30 24 -16 47 -30 50 -30 4 0
18 24 33 53 36 73 81 102 161 102 52 0 67 -4 99 -29 44 -33 75 -95 76 -147 0
-42 17 -54 45 -33 46 34 134 -2 149 -61 6 -22 12 -25 47 -25 58 0 115 -34 139
-85 25 -52 25 -78 0 -130 -36 -74 -55 -79 -305 -85 -212 -5 -220 -6 -220 -25
0 -19 8 -20 210 -23 240 -3 270 3 329 68 32 35 56 92 56 130 0 37 -24 94 -53
127 -33 37 -97 72 -132 73 -11 0 -33 16 -49 36 -34 43 -85 66 -134 62 -33 -3
-37 0 -42 27 -10 48 -37 91 -76 123 l-37 31 12 58 c60 292 -17 615 -205 866
-313 416 -882 595 -1406 441 -14 -4 -18 0 -18 19 0 48 -33 121 -75 162 -82 83
-217 98 -307 34 l-26 -19 -13 37 c-6 21 -35 61 -64 89 -78 79 -171 101 -279
68z m179 -53 c72 -32 135 -122 135 -193 0 -28 24 -26 59 5 19 16 49 36 67 43
118 49 259 -37 272 -165 l4 -50 -39 -10 c-126 -34 -418 -246 -508 -370 l-30
-41 -330 0 c-328 0 -330 0 -382 24 -183 86 -131 352 73 375 53 5 58 8 67 36
36 109 153 148 242 80 49 -37 66 -28 59 29 -24 170 157 307 311 237z m1245
-381 c427 -87 776 -402 883 -795 39 -143 45 -321 16 -457 l-10 -46 -52 -4
c-29 -2 -53 -4 -53 -4 -1 1 5 30 12 66 16 69 22 290 10 328 -17 51 -24 14 -23
-120 1 -187 -18 -268 -71 -318 -21 -19 -45 -45 -54 -58 -14 -21 -17 -22 -51
-7 -113 47 -259 -30 -274 -144 -5 -34 -12 -45 -37 -58 -75 -38 -116 -103 -116
-185 0 -29 7 -66 15 -82 9 -16 12 -33 7 -38 -17 -17 -182 -68 -272 -84 -123
-21 -339 -14 -455 15 -196 49 -376 152 -510 293 -129 134 -199 258 -246 434
-27 102 -30 306 -6 406 79 322 315 587 627 705 146 54 225 68 400 68 175 0
254 -14 400 -68 128 -48 238 -119 345 -219 51 -49 96 -88 99 -88 37 0 -104
145 -214 220 -193 131 -439 199 -684 187 -271 -13 -518 -116 -709 -297 -177
-168 -283 -375 -306 -604 -30 -297 78 -579 305 -797 129 -123 300 -218 481
-266 88 -24 116 -27 278 -27 199 -1 286 14 428 74 60 25 73 28 86 16 9 -7 30
-20 46 -29 l30 -16 -65 -29 c-157 -71 -345 -112 -520 -112 -104 0 -256 20
-335 44 -27 9 -61 16 -75 16 -14 -1 -90 -39 -170 -85 l-145 -84 -5 167 -5 168
-112 110 c-161 158 -247 303 -300 503 -36 136 -38 344 -4 475 51 197 147 364
290 506 195 193 436 305 741 344 72 9 283 -4 380 -24z"/>
<path d="M3526 3230 c-34 -11 -73 -45 -92 -82 -13 -24 -17 -26 -40 -18 -52 20
-121 -14 -142 -69 -6 -18 -17 -24 -46 -27 -69 -6 -136 -69 -136 -128 0 -28 15
-17 28 19 20 54 64 85 123 85 45 0 49 2 49 24 0 13 12 36 27 50 23 23 34 27
68 24 22 -3 47 -8 56 -12 13 -6 20 1 29 28 17 53 62 86 116 86 44 0 58 12 28
24 -19 7 -31 7 -68 -4z"/>
<path d="M5638 2595 c-4 -4 10 -41 31 -84 21 -42 44 -91 51 -109 13 -34 38
-39 32 -6 -6 30 -67 156 -88 182 -11 13 -22 20 -26 17z"/>
<path d="M4265 2090 c-271 -271 -355 -361 -343 -365 11 -4 133 53 333 155 308
158 317 162 335 144 10 -11 72 -83 139 -161 67 -79 125 -143 129 -143 13 0
657 699 657 712 0 7 -4 12 -10 11 -5 -1 -142 -63 -304 -138 l-295 -136 -140
140 -141 141 -360 -360z m505 185 l136 -136 269 126 c147 69 269 124 271 122
3 -3 -581 -632 -587 -632 -3 0 -61 65 -128 145 -68 80 -129 151 -136 158 -10
11 -66 -13 -305 -133 l-294 -147 310 316 c170 173 313 316 319 316 5 0 71 -61
145 -135z"/>
<path d="M5624 1185 c-9 -23 5 -35 40 -35 39 0 62 20 44 38 -17 17 -77 15 -84
-3z"/>
<path d="M5773 1184 c-9 -23 13 -40 32 -24 12 10 13 16 4 26 -15 18 -28 18
-36 -2z"/>
</g>
</svg>
