<?xml version="1.0" standalone="no"?>
<!DOCTYPE svg PUBLIC "-//W3C//DTD SVG 20010904//EN"
 "http://www.w3.org/TR/2001/REC-SVG-20010904/DTD/svg10.dtd">
<svg version="1.0" xmlns="http://www.w3.org/2000/svg"
 width="1500.000000pt" height="1523.000000pt" viewBox="0 0 1500.000000 1523.000000"
 preserveAspectRatio="xMidYMid meet">

<g transform="translate(0.000000,1523.000000) scale(0.100000,-0.100000)"
fill="#30D5C8" stroke="none">
<path d="M7060 14709 c-1903 -132 -3605 -1005 -4845 -2486 -723 -863 -1246
-1920 -1511 -3051 -50 -215 -41 -207 16 13 69 272 169 585 169 535 1 -8 -6
-44 -14 -79 -9 -35 -14 -66 -12 -68 2 -2 19 38 37 89 93 263 277 724 286 715
2 -2 -34 -108 -81 -236 -154 -424 -244 -740 -325 -1134 -87 -427 -123 -772
-124 -1182 -1 -268 5 -362 23 -350 13 7 19 62 41 354 48 634 102 981 230 1491
79 315 197 671 311 937 78 183 152 344 156 340 2 -2 -20 -60 -48 -128 -253
-613 -430 -1264 -514 -1883 -47 -355 -60 -613 -55 -1081 4 -242 15 -149 35
270 27 577 70 907 176 1364 148 631 357 1206 571 1572 31 52 93 168 138 259
91 180 235 402 457 702 157 213 440 558 458 558 6 0 61 50 121 111 759 771
1665 1337 2659 1662 373 122 825 228 1140 267 50 7 142 23 205 37 102 22 146
25 390 30 151 3 363 0 470 -6 107 -6 283 -15 390 -21 128 -7 236 -19 315 -35
66 -13 208 -40 315 -60 393 -72 782 -186 1221 -359 399 -156 755 -344 1149
-606 367 -245 653 -475 936 -753 111 -109 204 -193 206 -187 16 48 545 -646
801 -1051 160 -253 340 -591 437 -816 25 -57 49 -103 55 -103 20 0 127 -303
235 -670 100 -338 163 -612 209 -910 25 -161 91 -706 91 -752 0 -54 -13 -22
-31 80 l-18 97 7 -90 c4 -49 7 -256 7 -460 0 -203 3 -338 6 -300 l5 70 2 -65
c3 -120 -47 -605 -58 -560 -4 16 -13 -22 -24 -105 -10 -71 -21 -137 -23 -145
-4 -13 -4 -13 6 0 18 25 14 -6 -25 -198 -62 -308 -170 -702 -260 -947 -20 -55
-51 -145 -69 -200 -66 -200 -267 -613 -467 -958 -250 -433 -638 -941 -997
-1309 -41 -43 -70 -78 -64 -78 38 0 374 299 598 534 85 88 156 158 158 156 8
-9 -109 -192 -201 -315 -326 -437 -830 -901 -1402 -1291 -169 -116 -418 -270
-542 -338 -141 -76 -108 -71 48 7 179 90 207 94 77 10 -230 -148 -439 -263
-675 -373 -64 -30 -115 -56 -114 -58 5 -4 179 66 341 138 322 142 652 322 945
514 399 262 692 498 1023 825 476 469 858 966 1168 1517 116 208 350 685 349
713 0 3 -47 -88 -104 -204 -56 -115 -138 -273 -181 -350 -88 -158 -233 -395
-242 -395 -3 0 1 10 9 23 226 345 488 882 653 1337 144 396 286 942 331 1270
7 48 9 51 14 25 4 -20 13 22 28 130 83 602 90 1166 21 1779 -11 98 -18 180
-16 183 6 5 13 -44 42 -271 29 -238 44 -441 55 -756 l8 -245 -4 315 c-5 429
-26 726 -75 1068 -11 79 -19 148 -17 154 4 12 38 -194 69 -421 14 -101 17
-116 13 -56 -13 209 -96 674 -174 989 -22 87 -38 161 -35 164 3 3 5 3 5 0 0
-3 22 -93 50 -199 121 -475 193 -957 207 -1404 6 -206 -9 -655 -33 -935 -106
-1272 -557 -2505 -1291 -3537 -69 -96 -43 -75 35 29 166 222 347 517 498 813
205 400 373 828 529 1350 70 234 71 203 1 -46 -398 -1421 -1224 -2669 -2373
-3587 -1065 -849 -2318 -1350 -3728 -1489 -262 -26 -982 -26 -1248 0 -199 20
-266 18 -100 -2 498 -59 1024 -64 1533 -15 530 51 1136 181 1603 344 77 27
142 48 144 46 9 -8 -358 -135 -582 -201 -318 -94 -734 -185 -1056 -230 -126
-18 -324 -38 -589 -60 -210 -18 -255 -24 -243 -36 16 -16 311 -26 492 -18 736
35 1615 252 2366 584 1809 801 3236 2368 3835 4211 447 1377 487 2833 119
4286 -295 1168 -925 2235 -1860 3153 -1217 1195 -2805 1912 -4504 2035 -161
11 -724 11 -895 -1z m1641 -169 c490 -93 740 -163 1129 -317 896 -357 1703
-867 2318 -1467 157 -154 252 -256 237 -256 -4 0 -89 80 -189 178 -534 524
-1105 928 -1781 1262 -623 308 -1222 499 -1945 619 -114 19 -115 19 -49 20 38
1 154 -16 280 -39z m3969 -2355 c13 -14 21 -25 18 -25 -2 0 -15 11 -28 25 -13
14 -21 25 -18 25 2 0 15 -11 28 -25z m184 -220 c178 -222 312 -414 453 -650
521 -870 836 -1805 954 -2830 10 -93 18 -188 18 -210 -1 -22 -8 16 -15 85
-112 1047 -442 2039 -971 2918 -40 68 -71 128 -67 134 4 6 3 8 -4 4 -6 -3 -14
-1 -18 5 -4 8 -3 9 4 5 7 -4 12 -4 12 -1 0 20 -251 373 -408 575 -62 80 -94
125 -71 100 23 -25 74 -85 113 -135z m1285 -2325 c0 -9 -4 -8 -9 5 -5 11 -9
27 -9 35 0 9 4 8 9 -5 5 -11 9 -27 9 -35z m118 -932 c-3 -8 -6 -5 -6 6 -1 11
2 17 5 13 3 -3 4 -12 1 -19z m30 -560 c-2 -18 -4 -6 -4 27 0 33 2 48 4 33 2
-15 2 -42 0 -60z m10 -125 c-3 -10 -5 -4 -5 12 0 17 2 24 5 18 2 -7 2 -21 0
-30z m-330 -556 c-2 -23 -3 -1 -3 48 0 50 1 68 3 42 2 -26 2 -67 0 -90z m270
-834 c-3 -10 -5 -2 -5 17 0 19 2 27 5 18 2 -10 2 -26 0 -35z m-360 -75 c-3 -8
-6 -5 -6 6 -1 11 2 17 5 13 3 -3 4 -12 1 -19z m574 -140 c-30 -224 -88 -479
-165 -725 -45 -144 -136 -396 -142 -391 -1 2 17 64 42 138 98 297 184 629 240
927 15 84 30 150 33 148 2 -3 -2 -46 -8 -97z m-560 -1745 c-12 -20 -14 -14 -5
12 4 9 9 14 11 11 3 -2 0 -13 -6 -23z m-94 -204 c-553 -1157 -1442 -2168
-2497 -2839 -172 -109 -385 -233 -490 -284 -97 -47 -83 -38 140 92 193 112
259 156 525 349 447 324 795 629 1143 1002 446 480 849 1057 1149 1648 54 105
99 190 101 188 1 -1 -30 -72 -71 -156z m-3727 -3449 c-8 -5 -19 -10 -25 -10
-5 0 -3 5 5 10 8 5 20 10 25 10 6 0 3 -5 -5 -10z m-50 -20 c-8 -5 -19 -10 -25
-10 -5 0 -3 5 5 10 8 5 20 10 25 10 6 0 3 -5 -5 -10z"/>
<path d="M2920 9972 c-74 -37 -70 36 -70 -1132 0 -993 1 -1047 18 -1079 20
-37 73 -71 110 -71 39 0 92 31 110 64 15 28 17 100 22 799 l5 769 380 -784
c249 -513 389 -792 408 -810 51 -49 127 -47 176 6 12 12 190 371 397 797 206
426 380 778 385 784 5 5 9 -291 9 -762 l0 -770 23 -34 c27 -40 89 -66 132 -55
15 4 43 22 62 41 l33 33 0 1072 0 1072 -33 33 c-56 56 -130 59 -180 7 -14 -15
-224 -430 -467 -922 -242 -492 -444 -898 -449 -903 -4 -4 -210 403 -458 905
-389 790 -454 916 -483 936 -40 26 -83 28 -130 4z"/>
<path d="M5669 9967 c-18 -12 -39 -34 -46 -47 -10 -20 -13 -181 -10 -765 3
-734 3 -741 25 -813 94 -309 332 -540 641 -624 107 -30 323 -30 432 0 279 75
510 279 610 537 59 151 59 151 59 934 0 713 0 718 -21 745 -59 75 -167 72
-214 -7 -19 -31 -20 -60 -25 -757 l-5 -725 -27 -75 c-68 -184 -225 -334 -413
-393 -99 -31 -262 -31 -360 0 -159 50 -298 166 -372 309 -74 142 -73 124 -73
904 0 654 -1 697 -18 729 -36 67 -121 90 -183 48z"/>
<path d="M8310 9974 c-180 -38 -356 -177 -437 -344 -53 -110 -67 -173 -66
-295 1 -166 46 -270 167 -383 76 -71 183 -125 416 -213 261 -97 352 -152 407
-247 23 -39 28 -60 31 -137 3 -74 0 -100 -18 -148 -81 -215 -325 -316 -526
-217 -122 60 -206 181 -220 318 -8 77 -21 109 -57 134 -63 45 -151 21 -190
-53 -34 -65 -1 -240 71 -369 45 -83 159 -196 242 -243 114 -63 189 -82 320
-81 102 0 125 4 201 30 106 37 212 106 279 182 58 65 133 210 149 290 14 69
14 216 0 284 -18 85 -76 186 -149 258 -82 82 -170 129 -429 227 -287 109 -368
160 -415 262 -29 63 -27 174 3 253 44 115 151 212 262 238 84 20 193 9 265
-28 124 -63 195 -165 215 -309 6 -43 18 -90 26 -104 22 -37 64 -59 113 -59 36
0 48 6 81 39 38 37 39 41 39 107 0 159 -67 312 -190 434 -155 156 -374 221
-590 174z"/>
<path d="M9594 9980 c-35 -14 -72 -67 -79 -113 -3 -23 -5 -502 -3 -1064 3
-1017 3 -1022 24 -1050 53 -73 139 -80 201 -18 l33 33 0 1070 c0 1069 0 1069
-21 1096 -38 49 -102 68 -155 46z"/>
<path d="M11230 9984 c-314 -45 -535 -154 -726 -356 -426 -450 -410 -1155 35
-1598 353 -350 883 -438 1326 -219 166 82 335 221 348 287 15 73 -52 152 -128
152 -38 0 -51 -7 -117 -62 -97 -82 -173 -130 -263 -167 -125 -52 -194 -65
-355 -64 -127 0 -156 3 -233 27 -321 97 -553 335 -639 654 -27 103 -29 294 -4
405 60 264 224 471 469 592 136 67 209 86 367 92 106 4 154 2 220 -11 165 -34
297 -99 425 -211 33 -28 70 -57 82 -63 63 -34 151 11 173 86 14 50 -5 94 -63
149 -169 160 -383 263 -617 299 -86 13 -237 17 -300 8z"/>
<path d="M662 8970 c0 -14 2 -19 5 -12 2 6 2 18 0 25 -3 6 -5 1 -5 -13z"/>
<path d="M651 8924 c0 -11 3 -14 6 -6 3 7 2 16 -1 19 -3 4 -6 -2 -5 -13z"/>
<path d="M641 8874 c0 -11 3 -14 6 -6 3 7 2 16 -1 19 -3 4 -6 -2 -5 -13z"/>
<path d="M14363 8335 c0 -27 2 -38 4 -22 2 15 2 37 0 50 -2 12 -4 0 -4 -28z"/>
<path d="M14373 8225 c0 -27 2 -38 4 -22 2 15 2 37 0 50 -2 12 -4 0 -4 -28z"/>
<path d="M14354 7285 c0 -49 1 -71 3 -48 2 23 2 64 0 90 -2 26 -3 8 -3 -42z"/>
<path d="M5334 7219 c-17 -5 -38 -17 -46 -26 -15 -16 -261 -588 -662 -1532
-80 -189 -146 -357 -146 -373 0 -47 25 -84 71 -102 46 -19 93 -10 122 22 9 9
62 127 120 262 l104 245 470 3 470 2 103 -242 c56 -134 112 -253 123 -265 31
-35 79 -47 119 -30 44 19 68 47 75 89 4 30 -50 164 -387 954 -216 505 -398
930 -405 944 -22 42 -80 64 -131 49z m215 -820 c95 -225 175 -419 178 -429 5
-20 -2 -20 -362 -20 -346 0 -367 1 -360 18 29 76 361 842 365 842 3 -1 83
-185 179 -411z"/>
<path d="M2924 7200 c-11 -4 -33 -22 -47 -40 l-27 -32 2 -943 c3 -927 3 -943
23 -965 11 -13 34 -29 52 -36 42 -18 97 -1 127 39 21 28 21 37 26 748 l5 720
465 -737 c256 -405 477 -746 491 -756 53 -40 135 -19 166 43 10 19 13 236 13
957 l0 932 -34 38 c-30 32 -40 37 -80 37 -38 0 -51 -5 -78 -33 l-33 -32 -5
-723 -5 -723 -315 499 c-616 975 -626 991 -656 1004 -34 14 -61 15 -90 3z"/>
<path d="M6383 7195 c-56 -24 -82 -113 -47 -163 33 -48 58 -52 294 -52 l220 0
0 -864 0 -863 22 -28 c51 -65 140 -64 185 4 l23 34 0 858 0 859 220 0 c243 0
266 5 295 60 25 48 19 86 -19 128 l-34 37 -564 2 c-464 2 -569 0 -595 -12z"/>
<path d="M7902 7194 c-65 -33 -62 21 -62 -1007 l0 -934 22 -28 c51 -66 140
-64 185 4 l23 34 -2 939 -3 938 -30 30 c-38 38 -88 47 -133 24z"/>
<path d="M9322 7199 c-253 -33 -495 -169 -655 -370 -272 -339 -301 -808 -74
-1172 281 -448 843 -610 1312 -377 263 130 456 367 537 657 19 67 22 103 22
258 0 168 -2 186 -28 270 -121 397 -432 670 -833 730 -106 16 -182 17 -281 4z
m333 -244 c219 -58 408 -212 509 -412 98 -195 106 -452 20 -655 -102 -242
-318 -419 -576 -472 -179 -37 -388 0 -553 96 -84 49 -226 189 -274 271 -102
173 -136 376 -95 575 19 98 97 259 161 333 125 145 298 247 476 279 73 13 260
5 332 -15z"/>
<path d="M10915 7196 c-69 -30 -65 37 -65 -1003 0 -865 1 -940 17 -963 45 -66
136 -72 183 -13 20 25 20 35 20 749 0 398 3 724 8 724 4 -1 214 -330 467 -731
253 -402 470 -741 483 -754 44 -45 126 -36 166 18 21 28 21 32 24 955 2 1039
7 976 -69 1016 -32 18 -41 18 -78 8 -80 -25 -75 25 -81 -790 l-5 -723 -459
728 c-252 400 -471 740 -485 755 -32 33 -85 43 -126 24z"/>
<path d="M14342 7110 c0 -19 2 -27 5 -17 2 9 2 25 0 35 -3 9 -5 1 -5 -18z"/>
<path d="M14222 6525 c0 -16 2 -22 5 -12 2 9 2 23 0 30 -3 6 -5 -1 -5 -18z"/>
<path d="M14212 6465 c0 -16 2 -22 5 -12 2 9 2 23 0 30 -3 6 -5 -1 -5 -18z"/>
<path d="M14202 6405 c0 -16 2 -22 5 -12 2 9 2 23 0 30 -3 6 -5 -1 -5 -18z"/>
<path d="M14192 6350 c0 -14 2 -19 5 -12 2 6 2 18 0 25 -3 6 -5 1 -5 -13z"/>
<path d="M14181 6294 c0 -11 3 -14 6 -6 3 7 2 16 -1 19 -3 4 -6 -2 -5 -13z"/>
<path d="M13756 4915 c-9 -26 -7 -32 5 -12 6 10 9 21 6 23 -2 3 -7 -2 -11 -11z"/>
<path d="M1130 4778 c0 -26 158 -360 255 -539 457 -844 1058 -1566 1790 -2150
304 -242 708 -509 1022 -675 146 -77 119 -55 -47 39 -949 536 -1855 1395
-2448 2322 -269 420 -330 523 -458 780 -63 126 -114 227 -114 223z"/>
<path d="M13019 3453 c-13 -16 -12 -17 4 -4 16 13 21 21 13 21 -2 0 -10 -8
-17 -17z"/>
<path d="M12010 2964 c-152 -153 -331 -316 -487 -442 -51 -41 -93 -76 -93 -78
0 -5 60 38 230 167 80 59 164 138 271 250 161 169 234 249 228 249 -2 0 -69
-66 -149 -146z"/>
<path d="M3470 2176 c0 -8 198 -158 320 -243 507 -355 1021 -614 1605 -808
247 -82 646 -190 668 -181 7 2 5 5 -4 5 -36 2 -436 116 -615 176 -649 216
-1307 559 -1861 971 -62 46 -113 82 -113 80z"/>
<path d="M4510 1876 c0 -3 14 -12 30 -21 17 -9 30 -13 30 -11 0 3 -13 12 -30
21 -16 9 -30 13 -30 11z"/>
<path d="M4714 1766 c11 -9 24 -16 30 -16 12 0 7 5 -24 19 -24 11 -24 11 -6
-3z"/>
<path d="M9795 1523 c-22 -9 -101 -37 -175 -64 -74 -26 -130 -48 -123 -48 19
-1 347 109 358 120 14 14 -13 10 -60 -8z"/>
<path d="M7570 1110 l-75 -6 85 -1 c47 -1 108 2 135 7 l50 7 -60 0 c-33 0 -94
-3 -135 -7z"/>
<path d="M4905 1066 c201 -98 500 -212 726 -276 139 -39 447 -105 455 -98 2 3
-22 10 -53 17 -256 54 -734 205 -1018 321 -183 74 -201 80 -110 36z"/>
<path d="M6088 933 c6 -2 18 -2 25 0 6 3 1 5 -13 5 -14 0 -19 -2 -12 -5z"/>
<path d="M6138 923 c7 -3 16 -2 19 1 4 3 -2 6 -13 5 -11 0 -14 -3 -6 -6z"/>
<path d="M6188 913 c7 -3 16 -2 19 1 4 3 -2 6 -13 5 -11 0 -14 -3 -6 -6z"/>
<path d="M6238 903 c7 -3 16 -2 19 1 4 3 -2 6 -13 5 -11 0 -14 -3 -6 -6z"/>
<path d="M6408 873 c7 -3 16 -2 19 1 4 3 -2 6 -13 5 -11 0 -14 -3 -6 -6z"/>
<path d="M9110 870 c-20 -6 -21 -8 -5 -8 11 0 29 3 40 8 25 11 -1 11 -35 0z"/>
<path d="M9058 853 c7 -3 16 -2 19 1 4 3 -2 6 -13 5 -11 0 -14 -3 -6 -6z"/>
<path d="M8920 829 c-147 -32 -438 -78 -625 -98 -272 -30 -478 -41 -820 -42
-283 -2 -299 -3 -180 -11 171 -12 649 -2 845 17 286 28 742 103 875 144 50 15
-4 10 -95 -10z"/>
<path d="M6473 643 c9 -2 23 -2 30 0 6 3 -1 5 -18 5 -16 0 -22 -2 -12 -5z"/>
<path d="M6543 633 c9 -2 23 -2 30 0 6 3 -1 5 -18 5 -16 0 -22 -2 -12 -5z"/>
</g>
</svg>
